<svg width="91" height="90" viewBox="0 0 91 90" fill="none" xmlns="http://www.w3.org/2000/svg">
<g clip-path="url(#clip0_5_46)">
<path d="M32.4922 90.7031C40.8594 90.7031 47.6094 83.9531 47.6094 75.5859V60.4688H32.4922C24.125 60.4688 17.375 67.2188 17.375 75.5859C17.375 83.9531 24.125 90.7031 32.4922 90.7031Z" fill="#0ACF83"/>
<path d="M17.375 45.3516C17.375 36.9844 24.125 30.2344 32.4922 30.2344H47.6094V60.4688H32.4922C24.125 60.4688 17.375 53.7188 17.375 45.3516Z" fill="#A259FF"/>
<path d="M17.375 15.1172C17.375 6.75 24.125 0 32.4922 0H47.6094V30.2344H32.4922C24.125 30.2344 17.375 23.4844 17.375 15.1172Z" fill="#F24E1E"/>
<path d="M47.6094 0H62.7266C71.0938 0 77.8438 6.75 77.8438 15.1172C77.8438 23.4844 71.0938 30.2344 62.7266 30.2344H47.6094V0Z" fill="#FF7262"/>
<path d="M77.8438 45.3516C77.8438 53.7188 71.0938 60.4688 62.7266 60.4688C54.3594 60.4688 47.6094 53.7188 47.6094 45.3516C47.6094 36.9844 54.3594 30.2344 62.7266 30.2344C71.0938 30.2344 77.8438 36.9844 77.8438 45.3516Z" fill="#1ABCFE"/>
</g>
<defs>
<clipPath id="clip0_5_46">
<rect width="90" height="90" fill="white" transform="translate(0.5)"/>
</clipPath>
</defs>
</svg>
