<svg width="91" height="90" viewBox="0 0 91 90" fill="none" xmlns="http://www.w3.org/2000/svg">
<path d="M13.8854 80.069L6.85062 1.16785H84.1493L77.1068 80.057L45.4529 88.832L13.8854 80.069Z" fill="#E44D26"/>
<path d="M45.5 82.1249L71.0783 75.0332L77.0963 7.61902H45.5V82.1249Z" fill="#F16529"/>
<path d="M45.5 36.8824H32.6947L31.8102 26.9725H45.5V17.2961H21.2345L21.4665 19.8921L23.8445 46.5595H45.5V36.8824ZM45.5 62.0142L45.4571 62.0261L34.6803 59.1152L33.992 51.3984H24.2769L25.6325 66.5922L45.4557 72.0949L45.5 72.0829V62.0142Z" fill="#EBEBEB"/>
<path d="M45.4663 36.8824V46.5595H57.3821L56.2593 59.1096L45.4663 62.0226V72.0907L65.305 66.5923L65.4505 64.9575L67.7244 39.4811L67.96 36.8824H65.3528H45.4663ZM45.4663 17.2961V26.9726H68.841L69.035 24.7985L69.4766 19.8921L69.7079 17.2961H45.4663Z" fill="white"/>
</svg>
