<svg width="91" height="90" viewBox="0 0 91 90" fill="none" xmlns="http://www.w3.org/2000/svg">
<path d="M1.02849 0.98999H89.0484V89.0106H1.02849V0.98999Z" fill="#F0DB4F"/>
<path d="M81.845 68.0174C81.2002 64.0019 78.5818 60.629 70.8256 57.4839C68.1312 56.2457 65.1275 55.3591 64.2324 53.3172C63.9146 52.1289 63.8724 51.4595 64.0735 50.7402C64.6508 48.4059 67.4372 47.6781 69.6458 48.3475C71.0682 48.8242 72.4147 49.9204 73.2268 51.6691C77.0251 49.2095 77.0173 49.2257 79.6695 47.5354C78.6985 46.03 78.1803 45.3353 77.5447 44.6913C75.2602 42.1396 72.1475 40.8255 67.1693 40.926L64.5762 41.2614C62.0914 41.8893 59.7233 43.1936 58.3346 44.9423C54.1679 49.6701 55.3561 57.9445 60.4264 61.3497C65.4214 65.0988 72.7592 65.9517 73.6965 69.4574C74.6084 73.7493 70.5422 75.1387 66.5007 74.6451C63.5222 74.0257 61.8657 72.5118 60.0748 69.7591C56.7786 71.6667 56.7786 71.6667 53.3895 73.6157C54.1932 75.3728 55.0376 76.1681 56.3848 77.6903C62.7608 84.1577 78.7161 83.8399 81.5778 74.051C81.6938 73.7149 82.4644 71.4733 81.845 68.0174ZM48.879 41.4442H40.6461L40.6123 62.7292C40.6123 67.256 40.8465 71.4058 40.1103 72.6778C38.9058 75.1795 35.7847 74.8694 34.3622 74.3842C32.9145 73.6727 32.1783 72.6609 31.3254 71.2307C31.0913 70.8201 30.9155 70.5023 30.8565 70.4777L24.1627 74.5769C25.2758 76.8614 26.9154 78.8442 29.0157 80.1323C32.153 82.0153 36.3697 82.5925 40.7797 81.58C43.6498 80.744 46.1262 79.0122 47.4228 76.3762C49.2973 72.9203 48.8951 68.7374 48.8783 64.1109C48.9204 56.5628 48.879 49.0162 48.879 41.4442Z" fill="#323330"/>
</svg>
