<svg width="91" height="90" viewBox="0 0 91 90" fill="none" xmlns="http://www.w3.org/2000/svg">
<path d="M76.4537 11.25H43.9567C43.9567 19.35 50.5126 25.9088 58.6147 25.9088H64.5913V31.6927C64.5913 39.7927 71.15 46.3514 79.25 46.3514V14.0463C79.2495 13.3049 78.9547 12.5939 78.4304 12.0696C77.9061 11.5454 77.1951 11.2506 76.4537 11.25Z" fill="#2684FF"/>
<path d="M60.3507 27.45H27.853C27.853 35.5493 34.4096 42.1081 42.5089 42.1081H48.4883V47.892C48.4883 55.992 55.047 62.5507 63.147 62.5507V30.2457C63.1459 29.5044 62.8509 28.7938 62.3268 28.2696C61.8026 27.7454 61.092 27.4512 60.3507 27.45Z" fill="url(#paint0_linear_5_37)"/>
<path d="M44.2477 43.6486H11.75C11.75 51.7514 18.3059 58.3073 26.4087 58.3073H32.3853V64.094C32.3853 72.194 38.9441 78.75 47.0434 78.75V46.4477C47.0426 45.7062 46.7479 44.9953 46.2239 44.4707C45.6998 43.9462 44.9892 43.65 44.2477 43.6486Z" fill="url(#paint1_linear_5_37)"/>
<defs>
<linearGradient id="paint0_linear_5_37" x1="62.4706" y1="27.4866" x2="48.6444" y2="41.7432" gradientUnits="userSpaceOnUse">
<stop offset="0.176" stop-color="#0052CC"/>
<stop offset="1" stop-color="#2684FF"/>
</linearGradient>
<linearGradient id="paint1_linear_5_37" x1="47.3028" y1="43.7737" x2="31.3166" y2="59.3268" gradientUnits="userSpaceOnUse">
<stop offset="0.176" stop-color="#0052CC"/>
<stop offset="1" stop-color="#2684FF"/>
</linearGradient>
</defs>
</svg>
