<svg width="91" height="90" viewBox="0 0 91 90" fill="none" xmlns="http://www.w3.org/2000/svg">
<path d="M45.1088 0.984375L3.97598 15.2578L9.88223 69.8203L45.1088 89.0156V0.984375Z" fill="#412846"/>
<path d="M44.9682 0.984375L86.101 15.2578L80.1947 69.8203L44.9682 89.0156V0.984375Z" fill="#4B314F"/>
<path d="M65.5697 31.1484L65.4994 31.0781C67.3744 33.1875 68.3588 35.6719 68.4525 38.5312C68.4994 41.3906 67.515 44.4141 65.4994 47.6016C66.9994 46.4297 68.7338 43.9453 70.7025 40.1484C71.5463 47.8828 68.3822 53.7656 61.2104 57.7969C63.5072 57.6094 66.5307 56.1094 70.2807 53.2969C66.2963 62.9531 58.9369 68.0391 48.2025 68.5547C37.7963 68.5547 31.1166 62.3672 31.1166 62.3672C26.851 59.039 23.9213 54.8437 22.3275 49.7812C19.726 47.0391 19.726 46.7578 19.4447 45.6328C19.2338 44.5078 19.6557 44.1562 20.3588 43.1016C20.8744 42.3516 20.9916 41.3203 20.7104 40.0078C20.101 39.1172 19.7494 37.7344 19.6557 35.8594C19.6557 34.9219 20.265 33.9609 21.4838 32.9766C22.7025 31.9453 23.4291 31.1719 23.6635 30.6562C23.8979 30.375 23.9916 29.1094 23.9447 26.8594C23.8979 24.6562 25.1166 23.4609 27.601 23.2734C31.2572 22.9922 33.2963 20.25 34.4916 18.9844C35.265 18.1406 36.39 17.7188 37.7963 17.7188C39.8354 17.6484 41.6635 18.4219 43.2807 20.0391C47.2182 19.8281 51.226 20.8828 55.3041 23.2031C61.1166 26.625 64.3041 30.3516 64.8666 34.3828C64.2104 39.6797 57.1322 39.5391 43.6322 33.9609C36.5541 35.9766 33.0619 40.3125 33.1557 46.9687C33.1557 53.1094 36.1322 57.5625 42.0854 60.3281C39.2025 57.5156 37.9369 55.125 38.3588 53.1562C44.3588 60.2812 51.1791 62.9531 58.8197 61.1719C55.4916 61.2656 52.8197 60.1641 50.8041 57.8672C55.9604 57.7266 60.8354 55.3125 65.4291 50.625C62.8041 52.7344 60.015 53.5312 57.0619 53.0156C65.0307 46.7812 67.8666 39.4922 65.5697 31.1484ZM52.2104 28.9687C52.2104 28.3359 51.7182 27.8437 51.0854 27.8437C50.4525 27.8437 49.89 28.3359 49.89 28.9687C49.89 29.6016 50.4525 30.1641 51.0854 30.1641C51.7182 30.1641 52.2104 29.6016 52.2104 28.9687Z" fill="#BA2BD2"/>
</svg>
