<svg width="91" height="90" viewBox="0 0 91 90" fill="none" xmlns="http://www.w3.org/2000/svg">
<path d="M45.5 53.0156C49.9269 53.0156 53.5156 49.4269 53.5156 45C53.5156 40.5731 49.9269 36.9844 45.5 36.9844C41.0731 36.9844 37.4844 40.5731 37.4844 45C37.4844 49.4269 41.0731 53.0156 45.5 53.0156Z" fill="#61DAFB"/>
<path d="M75.9453 31.7812C74.3985 31.2187 72.7813 30.6562 71.0938 30.1641C71.5156 28.4766 71.8672 26.7891 72.1485 25.1719C73.625 15.8906 72.0078 9.35156 67.5078 6.82031C66.1719 6.04687 64.6953 5.69531 63.0078 5.69531C58.086 5.69531 51.8281 9.35156 45.5 15.4687C39.1719 9.35156 32.9141 5.69531 27.9922 5.69531C26.3047 5.69531 24.8281 6.04687 23.4922 6.82031C18.9922 9.42187 17.375 15.9609 18.8516 25.1719C19.1328 26.7891 19.4844 28.4766 19.9063 30.1641C18.2188 30.6562 16.6016 31.1484 15.0547 31.7812C6.26563 35.1562 1.48438 39.7969 1.48438 45C1.48438 50.2031 6.33594 54.8437 15.0547 58.2187C16.6016 58.7812 18.2188 59.3437 19.9063 59.8359C19.4844 61.5234 19.1328 63.2109 18.8516 64.8281C17.375 74.1094 18.9922 80.6484 23.4922 83.1797C24.8281 83.9531 26.3047 84.3047 27.9922 84.3047C32.9844 84.3047 39.2422 80.6484 45.5 74.5312C51.8281 80.6484 58.086 84.3047 63.0078 84.3047C64.6953 84.3047 66.1719 83.9531 67.5078 83.1797C72.0078 80.5781 73.625 74.039 72.1485 64.8281C71.8672 63.2109 71.5156 61.5234 71.0938 59.8359C72.7813 59.3437 74.3985 58.8515 75.9453 58.2187C84.7344 54.8437 89.5156 50.2031 89.5156 45C89.5156 39.7969 84.7344 35.1562 75.9453 31.7812ZM65.5391 10.3359C68.4219 12.0234 69.4063 17.2266 68.211 24.6094C68 26.0859 67.6485 27.6328 67.2266 29.25C63.5703 28.4062 59.7031 27.8437 55.625 27.4922C53.2344 24.1172 50.7734 21.0937 48.3125 18.3516C53.5156 13.2187 58.7891 9.70312 63.0781 9.70312C63.9922 9.70312 64.836 9.91406 65.5391 10.3359ZM57.6641 52.0312C56.3985 54.2812 54.9219 56.5312 53.375 58.7812C50.7734 58.9922 48.1719 59.0625 45.5 59.0625C42.7578 59.0625 40.1563 58.9922 37.625 58.7812C36.0781 56.5312 34.6719 54.2812 33.4063 52.0312C32.0703 49.7109 30.8047 47.3203 29.6797 45C30.8047 42.6797 32.0703 40.2891 33.4063 37.9687C34.6719 35.7187 36.1484 33.4687 37.6953 31.2187C40.2969 31.0078 42.8984 30.9375 45.5703 30.9375C48.3125 30.9375 50.9141 31.0078 53.4453 31.2187C54.9922 33.4687 56.3985 35.7187 57.6641 37.9687C59 40.2891 60.2656 42.6797 61.3906 45C60.1953 47.3203 59 49.6406 57.6641 52.0312ZM63.5 49.7109C64.5547 52.1719 65.3985 54.5625 66.1719 56.9531C63.7813 57.5156 61.25 57.9375 58.5781 58.289C59.4219 56.9531 60.3359 55.5469 61.1094 54.0703C61.9531 52.5937 62.7266 51.1172 63.5 49.7109ZM45.5 68.7656C43.8125 66.9375 42.1953 64.9687 40.6484 62.9297C42.2656 63 43.8828 63.0703 45.5 63.0703C47.1172 63.0703 48.7344 63 50.3516 62.9297C48.8047 64.9687 47.1875 66.9375 45.5 68.7656ZM32.4219 58.2187C29.75 57.8672 27.2188 57.4453 24.8281 56.8828C25.6016 54.5625 26.4453 52.1015 27.5 49.6406C28.2734 51.0469 29.0469 52.5234 29.8906 53.9297C30.7344 55.4765 31.5781 56.8125 32.4219 58.2187ZM27.5 40.289C26.4453 37.8281 25.6016 35.4375 24.8281 33.0469C27.2188 32.4844 29.75 32.0625 32.4219 31.7109C31.5781 33.0469 30.6641 34.4531 29.8906 35.9297C29.0469 37.4062 28.2734 38.8828 27.5 40.289ZM45.5 21.2344C47.1875 23.0625 48.8047 25.0312 50.3516 27.0703C48.7344 27 47.1172 26.9297 45.5 26.9297C43.8828 26.9297 42.2656 27 40.6484 27.0703C42.1953 25.0312 43.8125 23.0625 45.5 21.2344ZM61.1094 36L58.5781 31.7812C61.25 32.1328 63.7813 32.5547 66.1719 33.1172C65.3985 35.4375 64.5547 37.8984 63.5 40.3594C62.7266 38.8828 61.9531 37.4062 61.1094 36ZM22.7891 24.6094C21.5938 17.2266 22.5781 12.0234 25.4609 10.3359C26.1641 9.91406 27.0078 9.70312 27.9219 9.70312C32.1406 9.70312 37.4141 13.1484 42.6875 18.3516C40.2266 21.0234 37.7656 24.1172 35.375 27.4922C31.2969 27.8437 27.4297 28.4766 23.7734 29.25C23.3516 27.6328 23.0703 26.0859 22.7891 24.6094ZM5.42188 45C5.42188 41.6953 9.42969 38.1797 16.4609 35.5781C17.8672 35.0156 19.4141 34.5234 20.9609 34.1016C22.0859 37.6172 23.4922 41.3437 25.1797 45.0703C23.4922 48.7969 22.0156 52.4531 20.9609 55.9687C11.2578 53.1562 5.42188 48.9375 5.42188 45ZM25.4609 79.664C22.5781 77.9765 21.5938 72.7734 22.7891 65.3906C23 63.914 23.3516 62.3672 23.7734 60.75C27.4297 61.5937 31.2969 62.1562 35.375 62.5078C37.7656 65.8828 40.2266 68.9062 42.6875 71.6484C37.4844 76.7812 32.2109 80.2969 27.9219 80.2969C27.0078 80.2969 26.1641 80.0859 25.4609 79.664ZM68.211 65.3906C69.4063 72.7734 68.4219 77.9765 65.5391 79.664C64.836 80.0859 63.9922 80.2969 63.0781 80.2969C58.8594 80.2969 53.5859 76.8515 48.3125 71.6484C50.7734 68.9765 53.2344 65.8828 55.625 62.5078C59.7031 62.1562 63.5703 61.5234 67.2266 60.75C67.6485 62.3672 67.9297 63.914 68.211 65.3906ZM74.5391 54.4219C73.1328 54.9844 71.586 55.4765 70.0391 55.8984C68.9141 52.3828 67.5078 48.6562 65.8203 44.9297C67.5078 41.2031 68.9844 37.5469 70.0391 34.0312C79.7422 36.8437 85.5781 41.0625 85.5781 45C85.5781 48.3047 81.5 51.8203 74.5391 54.4219Z" fill="#61DAFB"/>
</svg>
