<svg width="91" height="90" viewBox="0 0 91 90" fill="none" xmlns="http://www.w3.org/2000/svg">
<path d="M15.9783 33.0469H86.0588V84.8461H15.9783V33.0469Z" fill="white"/>
<path d="M1.09317 44.9368V88.8821H88.9838V0.991455H1.09317V44.9368ZM71.919 41.4211C74.024 41.9097 75.9373 43.0106 77.4174 44.5852C78.2322 45.4335 78.9406 46.378 79.5268 47.3977C79.5268 47.5102 75.7299 50.0766 73.4166 51.511C73.3322 51.5672 72.9947 51.2016 72.6221 50.6461C72.1998 49.9175 71.5998 49.3077 70.878 48.8736C70.1563 48.4396 69.3363 48.1955 68.4947 48.1641C65.8299 47.9813 64.1143 49.3805 64.1283 51.6797C64.1063 52.2522 64.2374 52.8201 64.508 53.325C65.0916 54.5415 66.1814 55.2657 69.5986 56.7422C75.8916 59.4493 78.5846 61.2352 80.258 63.7735C82.1283 66.586 82.5432 71.1282 81.2775 74.4891C79.8713 78.1454 76.426 80.6274 71.5533 81.45C69.3278 81.7049 67.0792 81.6813 64.8596 81.3797C61.4576 80.819 58.3239 79.1856 55.9158 76.718C55.1072 75.8251 53.5322 73.4977 53.6307 73.329C53.8874 73.1384 54.1576 72.9669 54.4393 72.8157L57.6947 71.0157L60.2189 69.5532L60.7463 70.3336C61.6363 71.6067 62.7689 72.6915 64.0791 73.5258C66.8916 75.0024 70.7307 74.7985 72.6291 73.0899C73.2665 72.4638 73.6642 71.634 73.7528 70.7449C73.8415 69.8559 73.6155 68.9639 73.1143 68.2243C72.4111 67.2469 71.0049 66.4243 67.0744 64.7086C62.5393 62.754 60.5846 61.5446 58.7986 59.618C57.6837 58.3467 56.8605 56.8468 56.3869 55.2235C56.0336 53.369 55.9814 51.4696 56.2322 49.5985C57.1674 45.218 60.451 42.1594 65.2463 41.2524C67.4671 40.9776 69.7166 41.0392 71.919 41.4352V41.4211ZM51.2893 45.1055V48.7055H39.8775V81.211H31.7846V48.6985H20.3447V45.1829C20.3091 43.9705 20.3373 42.7571 20.4291 41.5477C20.4854 41.4844 27.4604 41.4844 35.8979 41.4844H51.2471L51.2893 45.1055Z" fill="#007ACC"/>
</svg>
