<svg width="91" height="90" viewBox="0 0 91 90" fill="none" xmlns="http://www.w3.org/2000/svg">
<path d="M15.4498 78.2226L4.35594 12.4804L24.8675 3.96912L37.9667 11.7527L49.9662 5.27904L74.9679 14.8809L60.9476 86.1441L15.4498 78.2226Z" fill="url(#paint0_linear_5_31)"/>
<path d="M86.6441 31.7229L76.0227 5.49351L56.7556 3.85522L27.0127 32.4352L35.0164 69.2663L49.9663 79.7499L86.6441 57.986L77.6434 41.1082L86.6441 31.7229Z" fill="url(#paint1_linear_5_31)"/>
<path d="M70.1586 27.8149L77.6434 41.1082L86.6434 31.7229L80.0354 15.3865L70.1586 27.8149Z" fill="url(#paint2_linear_5_31)"/>
<path d="M19.7867 19.2867H71.2133V70.7133H19.7867V19.2867Z" fill="black"/>
<path d="M26.1971 60.9933H45.4838V64.2094H26.1971V60.9933ZM44.4537 25.6894L41.5836 36.9408L38.3014 25.688H35.0354L31.7426 36.9422L28.8809 25.6894H24.3781L29.8906 44.9846H33.5075L36.6617 33.8133L39.7815 44.9839H43.4426L48.9467 25.6887L44.4537 25.6894ZM49.7518 42.2311L52.2619 39.2239C53.8407 40.68 55.8939 41.5144 58.0409 41.5723C59.7544 41.5723 60.8344 40.8853 60.8344 39.7456V39.6935C60.8344 38.6142 60.1665 38.0651 56.9342 37.2354C53.034 36.2412 50.5238 35.1591 50.5238 31.3193V31.2589C50.5238 27.7545 53.3412 25.4307 57.2935 25.4307C59.9019 25.385 62.4436 26.2559 64.4759 27.8916L62.2653 31.0971C60.8197 29.9676 59.065 29.3038 57.2337 29.1938C55.6046 29.1938 54.7475 29.9405 54.7475 30.9073V30.9678C54.7475 32.2369 55.6053 32.6813 58.9226 33.5412C62.8475 34.5685 65.0609 35.9747 65.0609 39.3504V39.4025C65.0609 43.2422 62.1275 45.4036 57.9523 45.4036C54.9313 45.4148 52.012 44.313 49.7518 42.3085" fill="white"/>
<defs>
<linearGradient id="paint0_linear_5_31" x1="33.8156" y1="5.6319" x2="54.9679" y2="82.3334" gradientUnits="userSpaceOnUse">
<stop offset="0.28" stop-color="#07C3F2"/>
<stop offset="0.94" stop-color="#087CFA"/>
</linearGradient>
<linearGradient id="paint1_linear_5_31" x1="40.4408" y1="15.3726" x2="76.3707" y2="68.2637" gradientUnits="userSpaceOnUse">
<stop offset="0.14" stop-color="#FCF84A"/>
<stop offset="0.37" stop-color="#07C3F2"/>
</linearGradient>
<linearGradient id="paint2_linear_5_31" x1="76.1204" y1="21.9688" x2="80.8214" y2="38.7345" gradientUnits="userSpaceOnUse">
<stop offset="0.28" stop-color="#07C3F2"/>
<stop offset="0.94" stop-color="#087CFA"/>
</linearGradient>
</defs>
</svg>
